<?xml version="1.0" standalone="no"?>
<!DOCTYPE svg PUBLIC "-//W3C//DTD SVG 20010904//EN"
 "http://www.w3.org/TR/2001/REC-SVG-20010904/DTD/svg10.dtd">
<svg version="1.0" xmlns="http://www.w3.org/2000/svg"
 width="512.000000pt" height="512.000000pt" viewBox="0 0 512.000000 512.000000"
 preserveAspectRatio="xMidYMid meet">

<g transform="translate(0.000000,512.000000) scale(0.100000,-0.100000)"
fill="#000000" stroke="none">
<path d="M2380 5114 c-19 -2 -77 -9 -128 -15 -139 -16 -302 -52 -447 -99 -71
-23 -133 -44 -137 -47 -4 -2 12 -27 35 -56 23 -29 55 -74 71 -102 16 -27 30
-52 32 -54 1 -1 49 11 106 27 235 69 404 93 653 93 607 1 1160 -224 1599 -651
377 -366 607 -822 681 -1350 32 -232 18 -563 -35 -800 -170 -754 -717 -1386
-1435 -1655 -276 -104 -513 -146 -815 -146 -382 0 -704 76 -1040 247 -616 312
-1059 882 -1210 1554 -49 221 -67 541 -40 755 35 291 125 580 257 823 24 45
43 87 41 91 -2 5 -42 49 -89 99 l-86 90 -63 -110 c-156 -270 -266 -607 -312
-948 -21 -157 -15 -518 11 -680 44 -274 115 -498 236 -745 132 -269 269 -460
489 -681 221 -220 412 -357 681 -489 247 -121 469 -192 745 -237 195 -31 565
-31 760 0 276 45 498 116 745 237 269 132 460 269 681 489 220 221 357 412
489 681 88 179 132 296 180 476 63 240 78 371 78 649 0 278 -15 409 -78 649
-48 180 -92 297 -180 476 -132 269 -269 460 -489 681 -221 220 -412 357 -681
489 -355 174 -675 252 -1070 259 -110 3 -216 2 -235 0z"/>
<path d="M946 4865 c-225 -57 -395 -276 -396 -507 -1 -252 190 -475 442 -518
281 -49 558 157 600 445 35 245 -117 486 -359 571 -67 23 -213 27 -287 9z"/>
<path d="M2460 3784 c-484 -45 -895 -366 -1049 -819 -102 -303 -78 -652 64
-935 164 -325 444 -546 805 -638 94 -24 123 -27 280 -27 187 1 281 16 428 72
337 126 619 422 725 759 48 152 60 243 54 419 -6 174 -22 258 -76 400 -146
379 -499 673 -896 748 -86 17 -262 27 -335 21z"/>
</g>
</svg>
